<svg width="61" height="67" viewBox="0 0 61 67" fill="none" xmlns="http://www.w3.org/2000/svg">
<path d="M61 13.4382V7.81511C61 4.34045 58.4263 1.51365 55.2628 1.51365H45.4012C44.5099 0.914027 43.4627 0.567871 42.3432 0.567871H5.87305C2.63474 0.567673 0 3.46157 0 7.0184V59.9814C0 63.5384 2.63474 66.4321 5.87305 66.4321H42.343C43.4627 66.4321 44.5101 66.0858 45.4015 65.486H55.2627C58.4262 65.486 60.9998 62.6592 60.9998 59.1845V53.5615C60.9998 51.6332 60.2063 49.9054 58.9602 48.7486C60.2063 47.5919 60.9998 45.8641 60.9998 43.9358V38.3125C60.9998 36.3843 60.2063 34.6565 58.9602 33.4997C60.2063 32.3429 60.9998 30.6151 60.9998 28.6869V23.0638C60.9998 21.1356 60.2063 19.4078 58.9602 18.251C60.2065 17.094 61 15.3662 61 13.4382ZM45.5055 59.9814C45.5055 61.8966 44.0867 63.4549 42.343 63.4549H5.87305C4.12938 63.4549 2.71064 61.8966 2.71064 59.9814V7.0184C2.71064 5.10323 4.12938 3.54493 5.87305 3.54493H42.343C44.0867 3.54493 45.5055 5.10323 45.5055 7.0184V59.9814ZM58.2894 59.1847C58.2894 61.0177 56.9317 62.5089 55.2628 62.5089H47.7463C48.0486 61.7324 48.2163 60.8782 48.2163 59.9816V50.2375H55.2628C56.9317 50.2375 58.2894 51.7287 58.2894 53.5617V59.1847ZM58.2894 43.9358C58.2894 45.7688 56.9317 47.26 55.2628 47.26H48.2163V34.9883H55.2628C56.9317 34.9883 58.2894 36.4795 58.2894 38.3125V43.9358ZM58.2894 28.6869C58.2894 30.5199 56.9317 32.0111 55.2628 32.0111H48.2163V19.7394H55.2628C56.9317 19.7394 58.2894 21.2306 58.2894 23.0636V28.6869ZM58.2894 13.4382C58.2894 15.2712 56.9317 16.7624 55.2628 16.7624H48.2163V7.0184C48.2163 6.12165 48.0484 5.26737 47.7461 4.49071H55.2628C56.9317 4.49071 58.2894 5.98191 58.2894 7.81491V13.4382Z" fill="white" fill-opacity="0.7"/>
<path d="M40.9133 45.6561H7.30298V48.6333H40.9133V45.6561Z" fill="white" fill-opacity="0.7"/>
<path d="M12.0877 40.9276H36.1284C36.5373 40.9276 36.9244 40.7249 37.1817 40.3758C37.4391 40.0267 37.5392 39.5688 37.454 39.1295C36.8044 35.7737 35.092 32.7431 32.67 30.5907C34.2569 28.4435 35.1437 25.7402 35.1437 22.9447C35.1437 16.261 30.193 10.8233 24.1078 10.8233C18.0226 10.8233 13.0719 16.261 13.0719 22.9447C13.0719 25.7402 13.9588 28.4435 15.5456 30.5907C13.1237 32.7431 11.4113 35.7735 10.7619 39.1295C10.6767 39.5688 10.7769 40.0269 11.0342 40.3758C11.2917 40.7249 11.6788 40.9276 12.0877 40.9276ZM18.3135 32.0718C18.6728 31.8247 18.9061 31.4069 18.9438 30.943C18.9816 30.4792 18.8197 30.0227 18.5061 29.7093C16.7751 27.9789 15.7825 25.5133 15.7825 22.9447C15.7825 17.9027 19.5172 13.8006 24.1078 13.8006C28.6983 13.8006 32.433 17.9027 32.433 22.9447C32.433 25.5133 31.4402 27.9789 29.7094 29.7093C29.3959 30.0227 29.2339 30.4792 29.2717 30.943C29.3095 31.4069 29.5428 31.8245 29.902 32.0718C31.9177 33.459 33.4683 35.5433 34.315 37.9505H13.9006C14.7472 35.5433 16.2979 33.4586 18.3135 32.0718Z" fill="white" fill-opacity="0.7"/>
<path d="M36.6814 51.5439H11.5347V54.5211H36.6814V51.5439Z" fill="white" fill-opacity="0.7"/>
</svg>
