<svg width="59" height="57" viewBox="0 0 59 57" fill="none" xmlns="http://www.w3.org/2000/svg">
<path d="M29.4548 0.286719C29.1987 0.29555 28.952 0.384753 28.7495 0.54168L0.689469 22.4373C0.434157 22.6364 0.268381 22.9287 0.228611 23.25C0.18884 23.5713 0.278332 23.8953 0.4774 24.1506C0.676467 24.4059 0.968804 24.5717 1.2901 24.6114C1.61139 24.6512 1.93533 24.5617 2.19064 24.3627L3.88006 23.045V55.12C3.88009 55.4436 4.00863 55.7538 4.23742 55.9826C4.46621 56.2114 4.7765 56.34 5.10006 56.34H21.9751C22.1069 56.3618 22.2413 56.3618 22.3731 56.34H36.6151C36.7469 56.3618 36.8813 56.3618 37.0131 56.34H53.9001C54.2236 56.34 54.5339 56.2114 54.7627 55.9826C54.9915 55.7538 55.12 55.4436 55.12 55.12V23.045L56.8095 24.3627C56.9359 24.4612 57.0805 24.534 57.235 24.5766C57.3895 24.6193 57.5509 24.6312 57.71 24.6115C57.8691 24.5918 58.0228 24.541 58.1622 24.4619C58.3017 24.3828 58.4242 24.2771 58.5228 24.1506C58.6213 24.0242 58.6941 23.8796 58.7367 23.7251C58.7794 23.5706 58.7913 23.4091 58.7716 23.2501C58.7519 23.091 58.701 22.9373 58.6219 22.7979C58.5428 22.6584 58.4371 22.5359 58.3106 22.4373L49.0201 15.1888V6.32H41.7001V9.47484L30.2506 0.54168C30.0236 0.365659 29.7418 0.275373 29.4548 0.286719ZM29.5001 3.05316L52.68 21.1411V53.9H38.0401V30.72H20.9601V53.9H6.32006V21.1411L29.5001 3.05316ZM44.14 8.76H46.5801V13.285L44.14 11.3787V8.76ZM23.4001 33.16H35.6001V53.9H23.4001V33.16Z" fill="white" fill-opacity="0.7"/>
</svg>
