<svg width="51" height="61" viewBox="0 0 51 61" fill="none" xmlns="http://www.w3.org/2000/svg">
<path d="M27.9115 30.0452C27.1525 30.2987 26.343 30.4394 25.5002 30.4394C24.6574 30.4394 23.8477 30.2987 23.0888 30.0452C17.5759 30.9506 14.6907 35.0024 14.6907 39.9193H25.5002H36.3096C36.3096 35.0024 33.4248 30.9506 27.9115 30.0452Z" fill="white" fill-opacity="0.7"/>
<path d="M25.5 28.6876C28.7681 28.6876 31.4163 26.0379 31.4163 22.7704V21.0921C31.4163 17.8245 28.7681 15.1757 25.5 15.1757C22.232 15.1757 19.5837 17.8245 19.5837 21.0921V22.7704C19.5837 26.0379 22.232 28.6876 25.5 28.6876Z" fill="white" fill-opacity="0.7"/>
<path d="M40.0829 0H10.9151C5.27407 0 0.683105 4.59192 0.683105 10.2341V50.7681C0.683105 56.4102 5.27407 61 10.9151 61H35.4218H36.9914L38.1016 59.8919L49.209 48.7845L50.3171 47.6753V46.1058V10.2341C50.3171 4.59192 45.7261 0 40.0829 0ZM46.5281 46.1056H40.7918C37.8273 46.1056 35.4216 48.5103 35.4216 51.4757V57.211H10.9151C7.35689 57.211 4.47225 54.3253 4.47225 50.7681V10.2341C4.47225 6.67485 7.35689 3.78903 10.9151 3.78903H40.0829C43.6423 3.78903 46.5279 6.67485 46.5279 10.2341V46.1056H46.5281Z" fill="white" fill-opacity="0.7"/>
</svg>
