<svg width="61" height="61" viewBox="0 0 61 61" fill="none" xmlns="http://www.w3.org/2000/svg">
<path fill-rule="evenodd" clip-rule="evenodd" d="M51.0667 61V59.6414H23.019C19.9858 59.6414 19.8419 51.2359 23.019 51.2359H25.233H57.957C58.1605 51.2359 58.3293 51.476 58.3293 51.7505V59.1268C58.3293 59.4012 58.1605 59.6414 57.957 59.6414H56.2791V61H51.0667ZM0 61V34.5072C0 31.5636 1.05241 28.9493 2.66081 27.3368C4.87484 25.1205 11.0503 24.9215 13.3984 26.7947C15.8953 28.7846 15.8854 32.9702 18.0399 35.8795C20.9241 39.7769 20.1993 40.2229 24.1309 40.2229H32.0091C39.0335 40.2229 35.2557 49.6646 31.1007 49.3695H23.9324C20.4624 49.3695 20.1695 50.138 17.3052 47.5032L17.1513 61H0ZM38.7952 49.4244C37.7825 49.4244 36.9584 48.2854 36.9584 46.8856C36.9584 45.4858 37.7825 44.3468 38.7952 44.3468H51.2106L57.53 26.5683C57.9718 25.3126 59.0689 24.798 59.9724 25.4087C60.8809 26.0193 61.2532 27.5358 60.8114 28.7846L54.0601 47.7776C53.797 48.7314 53.1268 49.4107 52.3425 49.4107H38.7952V49.4244ZM12.7431 0C17.5832 0 21.5049 5.4207 21.5049 12.1108C21.5049 18.8009 17.5832 24.2216 12.7431 24.2216C7.903 24.2216 3.98128 18.8009 3.98128 12.1108C3.98128 5.4207 7.903 0 12.7431 0Z" fill="white" fill-opacity="0.7"/>
</svg>
